<svg class="poloto" width="800" height="500" viewBox="0 0 800 500" xmlns="http://www.w3.org/2000/svg">
	<style>
 .poloto{
  stroke-linecap:round;
  stroke-linejoin:round;
  font-family:Roboto,sans-serif;
  font-size:16px;
}
.poloto_background{fill:AliceBlue;}
.poloto_scatter{stroke-width:7}
.poloto_line{stroke-width:2}
.poloto_text{fill: black;}
.poloto_name{font-size:24px;dominant-baseline:start;text-anchor:middle;}
.poloto_where{dominant-baseline:middle;text-anchor:start}
.poloto_text.poloto_legend{font-size:20px;dominant-baseline:middle;text-anchor:start;}
.poloto_text.poloto_ticks.poloto_y{dominant-baseline:middle;text-anchor:end}
.poloto_text.poloto_ticks.poloto_x{dominant-baseline:start;text-anchor:middle}
.poloto_imgs.poloto_ticks{stroke: black;stroke-width:3;fill:none;stroke-dasharray:none}
.poloto_grid{stroke:gray;stroke-width:0.5}

.poloto0.poloto_stroke{stroke:blue;}
.poloto1.poloto_stroke{stroke:red;}
.poloto2.poloto_stroke{stroke:green;}
.poloto3.poloto_stroke{stroke:gold;}
.poloto4.poloto_stroke{stroke:aqua;}
.poloto5.poloto_stroke{stroke:lime;}
.poloto6.poloto_stroke{stroke:orange;}
.poloto7.poloto_stroke{stroke:chocolate;}
.poloto0.poloto_fill{fill:blue;}
.poloto1.poloto_fill{fill:red;}
.poloto2.poloto_fill{fill:green;}
.poloto3.poloto_fill{fill:gold;}
.poloto4.poloto_fill{fill:aqua;}
.poloto5.poloto_fill{fill:lime;}
.poloto6.poloto_fill{fill:orange;}
.poloto7.poloto_fill{fill:chocolate;}
	</style>
	<circle r="1e5" class="poloto_background"/>
	<g id="poloto_plot0" class="poloto_plot poloto_imgs poloto_line poloto0 poloto_stroke" fill="none" stroke="black">
		<path d=" M 150.00 399.29 L 151.96 394.82 L 153.92 390.97 L 155.88 386.17 L 157.84 382.42 L 159.80 377.86 L 161.76 370.44 L 163.73 369.74 L 165.69 365.56 L 167.65 361.23 L 169.61 356.61 L 171.57 350.64 L 173.53 349.10 L 175.49 341.46 L 177.45 335.52 L 179.41 377.46 L 181.37 381.06 L 183.33 379.38 L 185.29 378.13 L 187.25 377.62 L 189.22 376.00 L 191.18 374.90 L 193.14 373.64 L 195.10 372.33 L 197.06 371.24 L 199.02 369.57 L 200.98 368.46 L 202.94 367.63 L 204.90 366.31 L 206.86 365.21 L 208.82 363.98 L 210.78 363.49 L 212.75 361.75 L 214.71 359.93 L 216.67 359.22 L 218.63 355.20 L 220.59 357.00 L 222.55 355.83 L 224.51 354.20 L 226.47 353.12 L 228.43 351.84 L 230.39 350.99 L 232.35 349.45 L 234.31 348.45 L 236.27 347.41 L 238.24 346.05 L 240.20 345.36 L 242.16 343.62 L 244.12 342.47 L 246.08 341.27 L 248.04 339.87 L 250.00 338.80 L 251.96 337.66 L 253.92 336.31 L 255.88 335.34 L 257.84 333.35 L 259.80 332.98 L 261.76 331.27 L 263.73 330.69 L 265.69 329.41 L 267.65 328.46 L 269.61 326.61 L 271.57 326.27 L 273.53 325.21 L 275.49 323.65 L 277.45 321.22 L 279.41 320.69 L 281.37 320.36 L 283.33 318.14 L 285.29 316.54 L 287.25 316.47 L 289.22 315.08 L 291.18 313.98 L 293.14 312.82 L 295.10 311.96 L 297.06 310.25 L 299.02 309.21 L 300.98 307.61 L 302.94 307.14 L 304.90 306.14 L 306.86 303.76 L 308.82 302.50 L 310.78 302.16 L 312.75 300.82 L 314.71 299.79 L 316.67 298.94 L 318.63 298.07 L 320.59 296.03 L 322.55 294.81 L 324.51 294.16 L 326.47 292.79 L 328.43 291.15 L 330.39 290.58 L 332.35 289.71 L 334.31 287.55 L 336.27 287.30 L 338.24 286.39 L 340.20 284.43 L 342.16 284.14 L 344.12 282.38 L 346.08 280.74 L 348.04 280.29 L 350.00 279.02 L 351.96 277.72 L 353.92 276.03 L 355.88 275.82 L 357.84 274.29 L 359.80 272.84 L 361.76 272.36 L 363.73 270.26 L 365.69 269.18 L 367.65 267.99 L 369.61 266.72 L 371.57 266.80 L 373.53 264.25 L 375.49 263.79 L 377.45 262.48 L 379.41 261.04 L 381.37 258.43 L 383.33 258.08 L 385.29 257.28 L 387.25 257.64 L 389.22 255.44 L 391.18 254.88 L 393.14 253.08 L 395.10 251.41 L 397.06 250.87 L 399.02 247.17 L 400.98 248.57 L 402.94 247.40 L 404.90 245.78 L 406.86 245.61 L 408.82 243.51 L 410.78 243.03 L 412.75 242.27 L 414.71 240.14 L 416.67 239.76 L 418.63 238.03 L 420.59 237.23 L 422.55 236.11 L 424.51 233.78 L 426.47 233.45 L 428.43 231.64 L 430.39 230.85 L 432.35 230.35 L 434.31 227.02 L 436.27 227.00 L 438.24 226.60 L 440.20 224.27 L 442.16 223.52 L 444.12 222.42 L 446.08 221.38 L 448.04 220.22 L 450.00 219.02 L 451.96 218.35 L 453.92 216.53 L 455.88 215.21 L 457.84 214.68 L 459.80 213.67 L 461.76 210.98 L 463.73 211.45 L 465.69 208.07 L 467.65 208.14 L 469.61 207.62 L 471.57 206.84 L 473.53 205.57 L 475.49 203.96 L 477.45 203.63 L 479.41 201.97 L 481.37 197.98 L 483.33 200.16 L 485.29 199.00 L 487.25 196.81 L 489.22 195.33 L 491.18 194.79 L 493.14 193.64 L 495.10 193.05 L 497.06 190.83 L 499.02 189.80 L 500.98 188.60 L 502.94 188.02 L 504.90 187.18 L 506.86 186.17 L 508.82 184.59 L 510.78 181.95 L 512.75 181.80 L 514.71 180.86 L 516.67 180.33 L 518.63 179.46 L 520.59 176.27 L 522.55 175.64 L 524.51 172.95 L 526.47 173.68 L 528.43 172.89 L 530.39 171.96 L 532.35 170.84 L 534.31 169.91 L 536.27 168.00 L 538.24 166.87 L 540.20 166.02 L 542.16 164.49 L 544.12 163.06 L 546.08 162.66 L 548.04 161.88 L 550.00 160.16 L 551.96 159.21 L 553.92 157.38 L 555.88 156.55 L 557.84 155.53 L 559.80 155.33 L 561.76 152.68 L 563.73 151.26 L 565.69 149.49 L 567.65 150.10 L 569.61 149.25 L 571.57 146.22 L 573.53 145.75 L 575.49 136.12 L 577.45 144.59 L 579.41 141.81 L 581.37 140.71 L 583.33 137.91 L 585.29 139.41 L 587.25 138.21 L 589.22 137.37 L 591.18 134.51 L 593.14 135.06 L 595.10 133.78 L 597.06 133.19 L 599.02 130.96 L 600.98 129.88 L 602.94 128.71 L 604.90 128.44 L 606.86 126.77 L 608.82 125.04 L 610.78 124.10 L 612.75 122.53 L 614.71 121.59 L 616.67 120.48 L 618.63 119.30 L 620.59 116.21 L 622.55 116.42 L 624.51 116.62 L 626.47 111.06 L 628.43 111.53 L 630.39 111.65 L 632.35 111.24 L 634.31 109.55 L 636.27 108.25 L 638.24 107.31 L 640.20 105.59 L 642.16 105.47 L 644.12 104.00 L 646.08 102.89 L 648.04 101.87 L 650.00 100.00"/>
	</g>
	<g id="poloto_plot1" class="poloto_plot poloto_imgs poloto_line poloto1 poloto_stroke" fill="none" stroke="black">
		<path d=" M 150.00 399.38 L 151.96 400.00 L 153.92 399.72 L 155.88 397.90 L 157.84 397.17 L 159.80 396.46 L 161.76 395.39 L 163.73 394.29 L 165.69 393.15 L 167.65 392.22 L 169.61 391.34 L 171.57 390.29 L 173.53 389.41 L 175.49 388.53 L 177.45 387.04 L 179.41 386.46 L 181.37 385.09 L 183.33 384.18 L 185.29 383.35 L 187.25 382.55 L 189.22 381.18 L 191.18 380.96 L 193.14 379.51 L 195.10 378.50 L 197.06 377.96 L 199.02 376.56 L 200.98 375.89 L 202.94 374.66 L 204.90 373.83 L 206.86 372.43 L 208.82 371.73 L 210.78 371.08 L 212.75 369.71 L 214.71 368.78 L 216.67 367.93 L 218.63 366.97 L 220.59 365.58 L 222.55 364.58 L 224.51 364.04 L 226.47 363.06 L 228.43 361.99 L 230.39 360.58 L 232.35 360.23 L 234.31 359.01 L 236.27 357.87 L 238.24 356.89 L 240.20 356.08 L 242.16 354.86 L 244.12 354.49 L 246.08 353.45 L 248.04 352.02 L 250.00 351.41 L 251.96 350.31 L 253.92 349.31 L 255.88 348.27 L 257.84 346.81 L 259.80 345.91 L 261.76 344.97 L 263.73 344.18 L 265.69 343.66 L 267.65 342.33 L 269.61 341.46 L 271.57 340.47 L 273.53 339.46 L 275.49 338.24 L 277.45 337.46 L 279.41 336.29 L 281.37 335.64 L 283.33 334.64 L 285.29 333.55 L 287.25 332.23 L 289.22 330.83 L 291.18 330.10 L 293.14 329.91 L 295.10 328.84 L 297.06 327.39 L 299.02 326.55 L 300.98 325.94 L 302.94 325.05 L 304.90 323.86 L 306.86 322.52 L 308.82 322.26 L 310.78 321.41 L 312.75 320.18 L 314.71 318.54 L 316.67 317.90 L 318.63 316.90 L 320.59 316.20 L 322.55 315.01 L 324.51 314.18 L 326.47 313.27 L 328.43 312.60 L 330.39 310.79 L 332.35 310.78 L 334.31 309.75 L 336.27 308.32 L 338.24 306.77 L 340.20 306.27 L 342.16 304.98 L 344.12 302.61 L 346.08 303.22 L 348.04 302.54 L 350.00 302.13 L 351.96 300.28 L 353.92 299.67 L 355.88 298.89 L 357.84 297.99 L 359.80 296.73 L 361.76 295.36 L 363.73 294.09 L 365.69 293.36 L 367.65 292.92 L 369.61 291.83 L 371.57 290.71 L 373.53 289.92 L 375.49 289.02 L 377.45 287.50 L 379.41 285.92 L 381.37 285.70 L 383.33 284.24 L 385.29 283.77 L 387.25 283.03 L 389.22 282.33 L 391.18 281.15 L 393.14 280.21 L 395.10 280.08 L 397.06 278.45 L 399.02 277.21 L 400.98 276.69 L 402.94 274.34 L 404.90 274.05 L 406.86 273.20 L 408.82 272.77 L 410.78 271.53 L 412.75 270.24 L 414.71 269.73 L 416.67 268.66 L 418.63 267.85 L 420.59 266.20 L 422.55 265.33 L 424.51 264.16 L 426.47 263.96 L 428.43 263.47 L 430.39 261.98 L 432.35 260.63 L 434.31 259.33 L 436.27 259.02 L 438.24 258.39 L 440.20 256.65 L 442.16 255.75 L 444.12 255.00 L 446.08 254.88 L 448.04 252.78 L 450.00 252.40 L 451.96 251.33 L 453.92 249.72 L 455.88 249.03 L 457.84 248.74 L 459.80 247.53 L 461.76 246.85 L 463.73 244.84 L 465.69 243.91 L 467.65 243.21 L 469.61 242.48 L 471.57 241.65 L 473.53 240.72 L 475.49 240.22 L 477.45 239.06 L 479.41 237.26 L 481.37 237.58 L 483.33 236.00 L 485.29 235.35 L 487.25 232.76 L 489.22 233.16 L 491.18 232.30 L 493.14 230.89 L 495.10 230.47 L 497.06 229.43 L 499.02 228.40 L 500.98 227.00 L 502.94 226.82 L 504.90 225.15 L 506.86 224.27 L 508.82 222.83 L 510.78 221.67 L 512.75 220.94 L 514.71 220.42 L 516.67 218.80 L 518.63 218.47 L 520.59 217.04 L 522.55 216.88 L 524.51 214.82 L 526.47 214.29 L 528.43 213.75 L 530.39 212.86 L 532.35 212.14 L 534.31 210.65 L 536.27 209.40 L 538.24 208.82 L 540.20 208.35 L 542.16 206.63 L 544.12 206.01 L 546.08 205.15 L 548.04 204.22 L 550.00 204.05 L 551.96 201.35 L 553.92 200.18 L 555.88 200.21 L 557.84 199.22 L 559.80 198.06 L 561.76 197.52 L 563.73 196.79 L 565.69 195.97 L 567.65 194.00 L 569.61 193.26 L 571.57 192.17 L 573.53 190.78 L 575.49 190.39 L 577.45 190.00 L 579.41 188.01 L 581.37 187.42 L 583.33 186.23 L 585.29 185.99 L 587.25 184.94 L 589.22 183.77 L 591.18 182.18 L 593.14 182.26 L 595.10 180.77 L 597.06 180.03 L 599.02 179.03 L 600.98 178.09 L 602.94 176.79 L 604.90 175.53 L 606.86 175.86 L 608.82 174.64 L 610.78 173.34 L 612.75 171.91 L 614.71 171.13 L 616.67 170.88 L 618.63 169.28 L 620.59 167.72 L 622.55 167.19 L 624.51 165.12 L 626.47 165.05 L 628.43 164.22 L 630.39 162.47 L 632.35 162.10 L 634.31 160.52 L 636.27 160.81 L 638.24 160.65 L 640.20 159.22 L 642.16 158.38 L 644.12 157.34 L 646.08 155.69 L 648.04 154.92 L 650.00 153.67"/>
	</g>
	<g class="poloto_legend poloto_imgs poloto_line poloto0 poloto_stroke"><line x1="680" x2="730" y1="81.25" y2="81.25"/></g>
	<g class="poloto_legend poloto_imgs poloto_line poloto1 poloto_stroke"><line x1="680" x2="730" y1="131.25" y2="131.25"/></g>
	<text class="poloto_legend poloto_text poloto_line poloto0" x="675" y="100"> traditional</text>
	<text class="poloto_legend poloto_text poloto_line poloto1" x="675" y="150"> texture</text>
	<text class="poloto_text poloto_name poloto_title" x="400.00" y="37.50"></text>
	<text class="poloto_text poloto_name poloto_x" x="400.00" y="481.25">object count</text>
	<text class="poloto_text poloto_name poloto_y" x="37.50" y="250.00" transform="rotate(-90,37.50,250.00)">seconds to process</text>
	<text class="poloto_text poloto_ticks poloto_y">
		<tspan x="135.00" y="369.42">5e-5</tspan>
		<tspan x="135.00" y="313.63">0.00010</tspan>
		<tspan x="135.00" y="257.84">0.00015</tspan>
		<tspan x="135.00" y="202.05">0.00020</tspan>
		<tspan x="135.00" y="146.25">0.00025</tspan>
	</text>
	<g class="poloto_imgs poloto_ticks poloto_y">
		<line x1="150.00" x2="144.00" y1="369.42" y2="369.42"/>
		<line x1="150.00" x2="144.00" y1="313.63" y2="313.63"/>
		<line x1="150.00" x2="144.00" y1="257.84" y2="257.84"/>
		<line x1="150.00" x2="144.00" y1="202.05" y2="202.05"/>
		<line x1="150.00" x2="144.00" y1="146.25" y2="146.25"/>
	</g>
	<text class="poloto_text poloto_ticks poloto_x">
		<tspan x="150.00" y="430.00">0</tspan>
		<tspan x="248.04" y="430.00">50</tspan>
		<tspan x="346.08" y="430.00">100</tspan>
		<tspan x="444.12" y="430.00">150</tspan>
		<tspan x="542.16" y="430.00">200</tspan>
		<tspan x="640.20" y="430.00">250</tspan>
	</text>
	<g class="poloto_imgs poloto_ticks poloto_x">
		<line x1="150.00" x2="150.00" y1="400.00" y2="405.00"/>
		<line x1="248.04" x2="248.04" y1="400.00" y2="405.00"/>
		<line x1="346.08" x2="346.08" y1="400.00" y2="405.00"/>
		<line x1="444.12" x2="444.12" y1="400.00" y2="405.00"/>
		<line x1="542.16" x2="542.16" y1="400.00" y2="405.00"/>
		<line x1="640.20" x2="640.20" y1="400.00" y2="405.00"/>
	</g>
	<path class="poloto_imgs poloto_ticks poloto_x" style="stroke-dasharray:9.80392156862745;stroke-dashoffset:-0;" d=" M 150.00 400.00 L 650.00 400.00"/>
	<path class="poloto_imgs poloto_ticks poloto_y" style="stroke-dasharray:5.57904955311813;stroke-dashoffset:-30.58323384028297;" d=" M 150.00 400.00 L 150.00 100.00"/>
</svg>
