<?xml version="1.0" encoding="utf-8"?>
<!-- Generator: Adobe Illustrator 27.5.0, SVG Export Plug-In . SVG Version: 6.00 Build 0)  -->
<svg version="1.1" id="Layer_1" xmlns="http://www.w3.org/2000/svg" xmlns:xlink="http://www.w3.org/1999/xlink" x="0px" y="0px"
	 width="250px" height="59px" viewBox="0 0 250 59" style="enable-background:new 0 0 250 59;" xml:space="preserve">
<style type="text/css">
	.st0{fill:#FFFFFF;}
</style>
<g>
	<g>
		<path class="st0" d="M22.6,24.9l8.5-10.7h5.1l-9.3,11.7L37.4,38H32l-9.3-10.7V38h-4.1V14.2h4.1V24.9z"/>
		<path class="st0" d="M39.9,14.2H44v19.9h10.1V38H39.9V14.2z"/>
		<path class="st0" d="M56.3,26.7c0-7.1,3.8-11.5,9.2-11.5c5.4,0,9.2,4.5,9.2,11.5c0,7.1-3.8,11.7-9.2,11.7
			C60.1,38.4,56.3,33.8,56.3,26.7z M73.1,26.7c0-6.2-3-10.1-7.6-10.1s-7.6,3.9-7.6,10.1c0,6.2,3,10.3,7.6,10.3S73.1,32.9,73.1,26.7z
			"/>
		<path class="st0" d="M79.9,15.6h1.6v9.8h12v-9.8H95V38h-1.6V26.8h-12V38h-1.6V15.6z"/>
		<path class="st0" d="M100.1,26.7c0-7.1,4-11.6,9.9-11.6c3,0,4.9,1.4,6.1,2.7l-0.9,1c-1.1-1.3-2.7-2.3-5.2-2.3
			c-5.1,0-8.3,3.9-8.3,10.1c0,6.2,3,10.3,8.1,10.3c2,0,3.9-0.6,5-1.7v-7h-5.3V27h6.8v8.9c-1.4,1.5-3.7,2.5-6.6,2.5
			C104,38.4,100.1,33.9,100.1,26.7z"/>
		<path class="st0" d="M122.2,15.6h12.3v1.3h-10.7v8.5h9v1.3h-9v9.9h11V38h-12.6V15.6z"/>
		<path class="st0" d="M139.7,15.6h6.4c4.5,0,7.4,1.6,7.4,5.9c0,4.1-2.9,6.2-7.4,6.2h-4.8V38h-1.6V15.6z M145.7,26.4
			c4,0,6.2-1.6,6.2-4.9c0-3.4-2.2-4.6-6.2-4.6h-4.4v9.5H145.7z M145.7,27.2l1.5-0.4l6.7,11.2h-1.8L145.7,27.2z"/>
	</g>
</g>
<path class="st0" d="M25.2,4.7V0H0v26.3c0,17.9,9,23.6,23.7,31.5l1.4,0.8v-5.3L25,53.1C11.6,46,4.7,41.5,4.7,26.3V4.7H25.2z"/>
</svg>
